HIERARCHY
ROOT Hips
{
	OFFSET	0	0	0
	CHANNELS 6  Xposition Yposition Zposition Xrotation Yrotation Zrotation
	JOINT Spine
	{
		OFFSET	0	0.0328084	0
		CHANNELS 6  Xrotation Yrotation Zrotation Xposition Yposition Zposition
		JOINT Spine1
		{
			OFFSET	0	0.364378	-0.0650674
			CHANNELS 6  Xrotation Yrotation Zrotation Xposition Yposition Zposition
			JOINT Spine2
			{
				OFFSET	0	0.276211	0.0296057
				CHANNELS 6  Xrotation Yrotation Zrotation Xposition Yposition Zposition
				JOINT Spine3
				{
					OFFSET	0	0.330543	0.0982518
					CHANNELS 6  Xrotation Yrotation Zrotation Xposition Yposition Zposition
					JOINT Spine4
					{
						OFFSET	0	0.489307	-0.0501019
						CHANNELS 3  Xrotation Yrotation Zrotation
						JOINT Neck
						{
							OFFSET	0	0.233592	-0.163645
							CHANNELS 3  Xrotation Yrotation Zrotation
							JOINT Head
							{
								OFFSET	0	0.280441	-0.083937
								CHANNELS 3  Xrotation Yrotation Zrotation
								End Site
								{
									OFFSET	0	0.584956	-0.0283043
								}
							}
						}
					}
					JOINT LeftShoulder
					{
						OFFSET	-0.140546	0.594716	-0.280441
						CHANNELS 3  Xrotation Yrotation Zrotation
						JOINT LeftArm
						{
							OFFSET	-0.349184	-0.083937	0.107687
							CHANNELS 3  Xrotation Yrotation Zrotation
							JOINT LeftForeArm
							{
								OFFSET	-1.05237	-0.0480318	0.0751168
								CHANNELS 3  Xrotation Yrotation Zrotation
								JOINT LeftHand
								{
									OFFSET	-0.914048	-0.0631659	0.0652438
									CHANNELS 3  Xrotation Yrotation Zrotation
									End Site
									{
										OFFSET	-0.333582	-0.0230524	0.0238092
									}
								}
							}
						}
					}
					JOINT RightShoulder
					{
						OFFSET	0.140546	0.594716	-0.280441
						CHANNELS 3  Xrotation Yrotation Zrotation
						JOINT RightArm
						{
							OFFSET	0.349184	-0.083937	0.107687
							CHANNELS 3  Xrotation Yrotation Zrotation
							JOINT RightForeArm
							{
								OFFSET	1.05237	-0.0480318	0.0751168
								CHANNELS 3  Xrotation Yrotation Zrotation
								JOINT RightHand
								{
									OFFSET	0.914048	-0.0631659	0.0652438
									CHANNELS 3  Xrotation Yrotation Zrotation
									End Site
									{
										OFFSET	0.333582	-0.0230524	0.0238092
									}
								}
							}
						}
					}
				}
			}
		}
	}
	JOINT LeftUpLeg
	{
		OFFSET	-0.377489	-0.268747	-0.0640914
		CHANNELS 3  Xrotation Yrotation Zrotation
		JOINT LeftLeg
		{
			OFFSET	0.00610822	-1.47615	-0.0230755
			CHANNELS 3  Xrotation Yrotation Zrotation
			JOINT LeftFoot
			{
				OFFSET	-0.078161	-1.44076	0.123905
				CHANNELS 3  Xrotation Yrotation Zrotation
				JOINT LeftToeBase
				{
					OFFSET	0	-0.118447	-0.314596
					CHANNELS 3  Xrotation Yrotation Zrotation
					End Site
					{
						OFFSET	0	-0.0473789	-0.189516
					}
				}
			}
		}
	}
	JOINT RightUpLeg
	{
		OFFSET	0.377489	-0.268747	-0.0640914
		CHANNELS 3  Xrotation Yrotation Zrotation
		JOINT RightLeg
		{
			OFFSET	-0.00610822	-1.47615	-0.0230755
			CHANNELS 3  Xrotation Yrotation Zrotation
			JOINT RightFoot
			{
				OFFSET	0.078161	-1.44076	0.123905
				CHANNELS 3  Xrotation Yrotation Zrotation
				JOINT RightToeBase
				{
					OFFSET	0	-0.118447	-0.314596
					CHANNELS 3  Xrotation Yrotation Zrotation
					End Site
					{
						OFFSET	0	-0.0473789	-0.189516
					}
				}
			}
		}
	}
}
MOTION
Frames: 6
Frame Time: 0.02
 3.73065 3.20289 3.41065 49.4958 39.6135 -52.6617 158.961 -179.994 -174.919 0 0.066873 0 167.378 -179.988 -171.532 0 0.066873 0 168.458 -179.964 -171.532 0 0.066873 0 5.18703 -0.0060589 5.08072 0 0.066873 0 168.263 179.655 178.342 170.365 159.067 -176.63 175.987 143.514 -174.9 9.82793 16.5637 15.8213 173.628 -156.517 -159.408 167.925 -174.447 178.839 -0 -12.9821 -4.57939 9.02444 -18.9747 -13.8541 14.1861 31.3288 -25.2023 154.035 119.496 -156.911 -0 14.0274 34.0767 176.508 138.239 165.437 97.1882 175.023 180 179.311 179.984 -165.981 17.6736 0 0 170.881 134.365 166.847 147.2 -170.961 -180 9.52404 -0.0382645 -7.78637 163.659 180 -180
 3.70535 3.21069 3.40225 50.1337 40.3993 -53.6725 159.035 -179.998 -174.814 0 0.0662288 0 167.422 -179.996 -171.356 0 0.0662288 0 168.459 -179.988 -171.356 0 0.0662288 0 5.27846 -0.00193287 5.18634 0 0.0662288 0 168.561 179.657 178.306 170.832 158.892 -176.999 176.115 143.068 -174.986 9.69334 17.3354 15.3858 174.112 -158.222 -160.895 168.044 -174.524 178.967 -0 -11.4577 -4.4408 8.44306 -18.6203 -13.0053 14.028 32.1281 -23.7275 150.416 119.325 -153.669 -0 14.2655 31.0068 177.572 138.718 164.663 99.067 174.767 180 178.673 179.987 -165.979 17.6495 0 0 169.31 135.684 168.128 148.094 -171.733 -180 8.64405 -0.0460204 -8.27806 163.424 180 -180
 3.68481 3.21544 3.40923 50.8528 41.1183 -53.983 159.227 179.993 -174.824 0 0.0656594 0 167.535 179.987 -171.373 0 0.0656594 0 168.542 179.96 -171.373 0 0.0656594 0 5.27263 0.00679577 5.17597 0 0.0656594 0 168.767 179.664 178.308 171.122 159.053 -177.886 176.191 142.8 -175.216 9.53183 17.9546 14.9504 174.405 -159.804 -161.608 168.186 -174.433 179.34 -0 -9.9838 -3.83459 8.06375 -18.1032 -12.5135 13.5565 33.3454 -22.6053 145.272 118.277 -148.732 -0 14.8206 27.7715 178.588 139.163 164.118 102.587 174.821 180 177.518 -179.982 -165.96 17.4992 0 0 168.677 136.879 168.541 148.416 -172.4 -180 8.24306 -0.0381097 -8.73495 163.248 180 -180
 3.6569 3.22209 3.40383 51.4124 41.8145 -54.729 159.356 179.993 -174.856 0 0.0651238 0 167.612 179.986 -171.427 0 0.0651238 0 168.624 179.957 -171.427 0 0.0651238 0 5.20782 0.00727406 5.14377 0 0.0651238 0 168.762 179.666 178.318 171.098 159.439 -179.066 176.165 142.631 -175.504 9.29175 18.8555 14.3176 174.338 -161.411 -162.21 168.332 -174.402 179.436 -0 -8.75168 -2.90803 7.72665 -17.1964 -12.1633 13.8013 35.1034 -21.0722 140.078 117.619 -143.398 -0 15.3479 24.5515 0.0426764 40.0253 -16.6131 106.787 175.075 180 176.421 -179.983 -165.918 17.3251 0 0 167.574 137.774 169.389 148.541 -172.938 -180 8.24885 -0.0887438 -9.1118 163.135 180 -180
 3.62707 3.22793 3.39955 52.0778 42.9214 -55.6914 159.547 179.995 -174.898 0 0.0646467 0 167.727 179.991 -171.497 0 0.0646467 0 168.744 179.972 -171.497 0 0.0646467 0 5.12141 0.00462273 5.10156 0 0.0646467 0 168.776 179.669 178.332 171.055 159.899 179.973 176.159 142.761 -175.776 9.06663 19.6525 13.7468 174.088 -163.013 -162.577 168.461 -174.183 179.528 -0 -7.76522 -1.4821 7.72615 -16.6081 -12.2857 14.2798 35.9804 -19.8472 135.323 117.438 -138.527 -0 15.9145 21.4884 179.99 140.341 163.752 110.796 175.578 180 175.317 -179.99 -165.807 17.1154 0 0 166.746 138.689 170.125 148.372 -173.484 -180 8.58529 -0.0701593 -9.48063 163.087 180 -180
 3.57161 3.23487 3.39238 52.7525 44.6996 -56.5487 159.95 179.988 -174.978 0 0.0640768 0 167.967 179.976 -171.63 0 0.0640768 0 168.972 179.929 -171.63 0 0.0640768 0 4.98391 0.0119974 5.02202 0 0.0640768 0 168.914 179.678 178.357 171.123 160.347 179.116 176.199 142.974 -176.047 8.75417 20.766 12.9686 173.696 -164.503 -162.789 168.594 -173.455 179.414 -0 -7.02769 0.613716 7.65243 -15.7878 -12.3321 14.6636 36.9144 -18.0891 131.558 117.916 -135.007 -0 16.2757 17.9799 179.328 141.082 164.56 114.641 176.222 -180 174.441 179.999 -165.695 16.9514 0 0 166.06 139.471 170.572 148.224 -173.841 -180 9.56021 -0.0482549 -9.79506 163.127 180 -180
